<svg width="201" height="200" viewBox="0 0 201 200" fill="none" xmlns="http://www.w3.org/2000/svg">
<path d="M0.5 6.25C0.5 4.5924 1.15848 3.00269 2.33058 1.83058C3.50269 0.65848 5.0924 0 6.75 0L44.25 0C45.9076 0 47.4973 0.65848 48.6694 1.83058C49.8415 3.00269 50.5 4.5924 50.5 6.25C50.5 7.9076 49.8415 9.49732 48.6694 10.6694C47.4973 11.8415 45.9076 12.5 44.25 12.5H13V43.75C13 45.4076 12.3415 46.9973 11.1694 48.1694C9.99732 49.3415 8.4076 50 6.75 50C5.0924 50 3.50269 49.3415 2.33058 48.1694C1.15848 46.9973 0.5 45.4076 0.5 43.75V6.25ZM150.5 6.25C150.5 4.5924 151.158 3.00269 152.331 1.83058C153.503 0.65848 155.092 0 156.75 0L194.25 0C195.908 0 197.497 0.65848 198.669 1.83058C199.842 3.00269 200.5 4.5924 200.5 6.25V43.75C200.5 45.4076 199.842 46.9973 198.669 48.1694C197.497 49.3415 195.908 50 194.25 50C192.592 50 191.003 49.3415 189.831 48.1694C188.658 46.9973 188 45.4076 188 43.75V12.5H156.75C155.092 12.5 153.503 11.8415 152.331 10.6694C151.158 9.49732 150.5 7.9076 150.5 6.25ZM6.75 150C8.4076 150 9.99732 150.658 11.1694 151.831C12.3415 153.003 13 154.592 13 156.25V187.5H44.25C45.9076 187.5 47.4973 188.158 48.6694 189.331C49.8415 190.503 50.5 192.092 50.5 193.75C50.5 195.408 49.8415 196.997 48.6694 198.169C47.4973 199.342 45.9076 200 44.25 200H6.75C5.0924 200 3.50269 199.342 2.33058 198.169C1.15848 196.997 0.5 195.408 0.5 193.75V156.25C0.5 154.592 1.15848 153.003 2.33058 151.831C3.50269 150.658 5.0924 150 6.75 150ZM194.25 150C195.908 150 197.497 150.658 198.669 151.831C199.842 153.003 200.5 154.592 200.5 156.25V193.75C200.5 195.408 199.842 196.997 198.669 198.169C197.497 199.342 195.908 200 194.25 200H156.75C155.092 200 153.503 199.342 152.331 198.169C151.158 196.997 150.5 195.408 150.5 193.75C150.5 192.092 151.158 190.503 152.331 189.331C153.503 188.158 155.092 187.5 156.75 187.5H188V156.25C188 154.592 188.658 153.003 189.831 151.831C191.003 150.658 192.592 150 194.25 150Z" fill="#BE8C63"/>
<g clip-path="url(#clip0_732_10604)">
<path d="M32.5 32V78.3846H78.8846V32H32.5ZM89.1923 32V42.3077H99.5V32H89.1923ZM99.5 42.3077V52.6154H89.1923V73.2308H99.5V62.9231H109.808V42.3077H99.5ZM99.5 73.2308V88.6923H53.1154V99H42.8077V109.308H63.4231V99H73.7308V109.308H99.5V99H109.808V109.308H125.269V99H135.577V88.6923H109.808V73.2308H99.5ZM135.577 99V109.308H166.5V99H156.192V88.6923H145.885V99H135.577ZM42.8077 99V88.6923H32.5V99H42.8077ZM120.115 32V78.3846H166.5V32H120.115ZM42.8077 42.3077H68.5769V68.0769H42.8077V42.3077ZM130.423 42.3077H156.192V68.0769H130.423V42.3077ZM47.9615 47.4615V62.9231H63.4231V47.4615H47.9615ZM135.577 47.4615V62.9231H151.038V47.4615H135.577ZM89.1923 114.462V124.769H99.5V114.462H89.1923ZM99.5 124.769V135.077H89.1923V155.692H99.5V145.385H120.115V135.077H130.423V124.769H140.731V135.077H130.423V145.385H120.115V166H130.423V155.692H140.731V145.385H145.885V155.692H140.731V166H151.038V155.692H156.192V145.385H166.5V124.769H156.192V114.462H120.115V124.769H99.5ZM156.192 155.692V166H166.5V155.692H156.192ZM99.5 155.692V166H109.808V155.692H99.5ZM32.5 119.615V166H78.8846V119.615H32.5ZM42.8077 129.923H68.5769V155.692H42.8077V129.923ZM47.9615 135.077V150.538H63.4231V135.077H47.9615Z" fill="#6C3428"/>
<path d="M32.5 32V78.3846H78.8846V32H32.5ZM89.1923 32V42.3077H99.5V32H89.1923ZM99.5 42.3077V52.6154H89.1923V73.2308H99.5V62.9231H109.808V42.3077H99.5ZM99.5 73.2308V88.6923H53.1154V99H42.8077V109.308H63.4231V99H73.7308V109.308H99.5V99H109.808V109.308H125.269V99H135.577V88.6923H109.808V73.2308H99.5ZM135.577 99V109.308H166.5V99H156.192V88.6923H145.885V99H135.577ZM42.8077 99V88.6923H32.5V99H42.8077ZM120.115 32V78.3846H166.5V32H120.115ZM42.8077 42.3077H68.5769V68.0769H42.8077V42.3077ZM130.423 42.3077H156.192V68.0769H130.423V42.3077ZM47.9615 47.4615V62.9231H63.4231V47.4615H47.9615ZM135.577 47.4615V62.9231H151.038V47.4615H135.577ZM89.1923 114.462V124.769H99.5V114.462H89.1923ZM99.5 124.769V135.077H89.1923V155.692H99.5V145.385H120.115V135.077H130.423V124.769H140.731V135.077H130.423V145.385H120.115V166H130.423V155.692H140.731V145.385H145.885V155.692H140.731V166H151.038V155.692H156.192V145.385H166.5V124.769H156.192V114.462H120.115V124.769H99.5ZM156.192 155.692V166H166.5V155.692H156.192ZM99.5 155.692V166H109.808V155.692H99.5ZM32.5 119.615V166H78.8846V119.615H32.5ZM42.8077 129.923H68.5769V155.692H42.8077V129.923ZM47.9615 135.077V150.538H63.4231V135.077H47.9615Z" fill="black" fill-opacity="0.2"/>
</g>
<defs>
<clipPath id="clip0_732_10604">
<rect width="134" height="134" fill="white" transform="translate(32.5 32)"/>
</clipPath>
</defs>
</svg>
